<?xml version="1.0" standalone="no"?>
<!DOCTYPE svg PUBLIC "-//W3C//DTD SVG 20010904//EN"
 "http://www.w3.org/TR/2001/REC-SVG-20010904/DTD/svg10.dtd">
<svg version="1.0" xmlns="http://www.w3.org/2000/svg"
 width="256.000000pt" height="256.000000pt" viewBox="0 0 256.000000 256.000000"
 preserveAspectRatio="xMidYMid meet">
<metadata>
Created by potrace 1.14, written by Peter Selinger 2001-2017
</metadata>
<g transform="translate(0.000000,256.000000) scale(0.100000,-0.100000)"
fill="#000000" stroke="none">
<path d="M0 1280 l0 -1280 1280 0 1280 0 0 1280 0 1280 -1280 0 -1280 0 0
-1280z m1466 605 c151 -51 266 -150 336 -292 28 -57 43 -101 46 -138 4 -50 2
-57 -26 -85 l-30 -30 -201 0 -202 0 66 87 c74 99 83 136 40 178 -54 55 -91 31
-211 -131 l-99 -133 -208 -1 -209 0 -29 29 c-35 36 -38 73 -9 156 67 195 247
348 453 385 80 14 197 4 283 -25z m330 -806 c42 -20 74 -59 89 -106 6 -21 3
-23 -35 -23 -34 0 -47 6 -74 35 -28 29 -40 35 -76 35 -130 0 -147 -233 -19
-265 37 -9 97 18 109 50 8 22 15 25 55 25 43 0 46 -1 39 -22 -22 -73 -63 -111
-137 -128 -157 -35 -277 101 -237 270 7 28 24 65 38 82 56 66 166 87 248 47z
m-986 -204 l0 -205 -45 0 -45 0 0 205 0 205 45 0 45 0 0 -205z m296 70 c31
-75 61 -132 65 -128 4 5 32 64 61 133 l54 125 52 3 52 3 0 -205 0 -206 -40 0
-40 0 0 115 c0 63 -3 115 -8 115 -4 0 -28 -48 -52 -107 -44 -106 -46 -108 -80
-111 l-36 -3 -49 118 -50 118 -3 -123 -3 -123 -42 3 -42 3 -3 203 -2 202 54 0
54 0 58 -135z"/>
</g>
</svg>
